<svg width="32" height="32" viewBox="0 0 32 32" fill="none" xmlns="http://www.w3.org/2000/svg">
<path d="M16.0002 30.6663C24.1003 30.6663 30.6668 24.0998 30.6668 15.9997C30.6668 7.8995 24.1003 1.33301 16.0002 1.33301M16.0002 30.6663C7.89999 30.6663 1.3335 24.0998 1.3335 15.9997C1.3335 7.8995 7.89999 1.33301 16.0002 1.33301M16.0002 30.6663C18.9457 30.6663 21.3335 24.0998 21.3335 15.9997C21.3335 7.8995 18.9457 1.33301 16.0002 1.33301M16.0002 30.6663C13.0546 30.6663 10.6668 24.0998 10.6668 15.9997C10.6668 7.8995 13.0546 1.33301 16.0002 1.33301M2.66683 10.6663H29.3335M2.66683 19.9997H29.3335" stroke="#437EF7" stroke-width="2" stroke-linecap="round"/>
</svg>
